<svg xmlns="http://www.w3.org/2000/svg" width="71.169" height="45.744" viewBox="0 0 71.169 45.744">
  <g id="logo_Lua" data-name="logo Lua" transform="translate(757.268 -267.371)">
    <g id="Groupe_502" data-name="Groupe 502" transform="translate(-757.268 267.371)">
      <path id="Tracé_28" data-name="Tracé 28" d="M-689.4,361.494a3.978,3.978,0,0,0-3.979,3.978,5.639,5.639,0,0,1-5.633,5.633,5.639,5.639,0,0,1-5.633-5.633,3.978,3.978,0,0,0-3.978-3.978,3.978,3.978,0,0,0-3.979,3.978,13.6,13.6,0,0,0,13.589,13.59,13.6,13.6,0,0,0,13.59-13.59A3.978,3.978,0,0,0-689.4,361.494Z" transform="translate(725.592 -334.118)"/>
      <path id="Tracé_29" data-name="Tracé 29" d="M-753.289,267.371a3.978,3.978,0,0,0-3.979,3.978v37.64a3.979,3.979,0,0,0,3.979,3.979,3.978,3.978,0,0,0,3.978-3.979v-37.64A3.978,3.978,0,0,0-753.289,267.371Z" transform="translate(757.268 -267.371)"/>
      <path id="Tracé_30" data-name="Tracé 30" d="M-579.655,341.431a13.864,13.864,0,0,0-.074-1.423v-8.5a3.978,3.978,0,0,0-3.979-3.978,3.973,3.973,0,0,0-3.288,1.74,13.666,13.666,0,0,0-6.416-1.593,13.772,13.772,0,0,0-13.756,13.756,13.771,13.771,0,0,0,13.756,13.756,13.667,13.667,0,0,0,6.21-1.487,3.978,3.978,0,0,0,3.494,2.076,3.978,3.978,0,0,0,3.979-3.979v-8.942A13.873,13.873,0,0,0-579.655,341.431Zm-13.756,5.8a5.806,5.806,0,0,1-5.8-5.8,5.806,5.806,0,0,1,5.8-5.8,5.8,5.8,0,0,1,5.726,4.922v1.754A5.8,5.8,0,0,1-593.411,347.23Z" transform="translate(650.824 -310.031)"/>
    </g>
    <g id="Groupe_503" data-name="Groupe 503" transform="translate(-741.07 286.131)">
      <circle id="Ellipse_9" data-name="Ellipse 9" cx="3.763" cy="3.763" r="3.763" transform="translate(0 0)"/>
    </g>
    <g id="Groupe_504" data-name="Groupe 504" transform="translate(-727.651 285.787)">
      <circle id="Ellipse_10" data-name="Ellipse 10" cx="3.979" cy="3.979" r="3.979" transform="translate(0 0)"/>
    </g>
  </g>
</svg>
