<svg xmlns="http://www.w3.org/2000/svg" width="145.082" height="145.082" viewBox="0 0 145.082 145.082">
  <g id="QR_code" data-name="QR code" transform="translate(-80 -80)">
    <g id="Groupe_674" data-name="Groupe 674" transform="translate(80 80)">
      <rect id="Rectangle_263" data-name="Rectangle 263" width="5.803" height="5.803" transform="translate(58.033 11.607)"/>
      <rect id="Rectangle_264" data-name="Rectangle 264" width="5.803" height="5.803" transform="translate(87.049 11.607)"/>
      <rect id="Rectangle_265" data-name="Rectangle 265" width="5.803" height="5.803" transform="translate(46.426 17.41)"/>
      <rect id="Rectangle_266" data-name="Rectangle 266" width="5.803" height="5.803" transform="translate(58.033 23.213)"/>
      <rect id="Rectangle_267" data-name="Rectangle 267" width="5.803" height="5.803" transform="translate(52.229 29.016)"/>
      <path id="Tracé_148" data-name="Tracé 148" d="M423.213,114.82v17.41h5.8V114.82h5.8v23.213h5.8V126.426h5.8v23.213h11.607v-5.8h-5.8v-5.8h5.8v-5.8h-5.8V114.82h-5.8v5.8h-5.8V109.016h11.607v-5.8H440.623v-5.8h-5.8V80H400V91.607h5.8V85.8H417.41v5.8h5.8V85.8h5.8v23.213H417.41v5.8Z" transform="translate(-353.574 -80)"/>
      <path id="Tracé_149" data-name="Tracé 149" d="M405.8,325.8V320H400v11.607h5.8Z" transform="translate(-353.574 -285.18)"/>
      <path id="Tracé_150" data-name="Tracé 150" d="M485.8,325.8V320H480v11.607h5.8Z" transform="translate(-421.967 -285.18)"/>
      <path id="Tracé_151" data-name="Tracé 151" d="M291.607,405.8v5.8H280v5.8h23.213v-5.8h-5.8V400H280v5.8h11.607Z" transform="translate(-250.984 -353.574)"/>
      <rect id="Rectangle_268" data-name="Rectangle 268" width="5.803" height="5.803" transform="translate(52.229 46.426)"/>
      <rect id="Rectangle_269" data-name="Rectangle 269" width="5.803" height="5.803" transform="translate(104.459 46.426)"/>
      <rect id="Rectangle_270" data-name="Rectangle 270" width="5.803" height="5.803" transform="translate(121.868 46.426)"/>
      <path id="Tracé_152" data-name="Tracé 152" d="M1005.8,400H1000v11.607h5.8v-5.8h5.8V400Z" transform="translate(-866.525 -353.574)"/>
      <path id="Tracé_153" data-name="Tracé 153" d="M85.8,405.8V400H80v11.607h5.8Z" transform="translate(-80 -353.574)"/>
      <rect id="Rectangle_271" data-name="Rectangle 271" width="5.803" height="5.803" transform="translate(58.033 52.229)"/>
      <rect id="Rectangle_272" data-name="Rectangle 272" width="5.803" height="5.803" transform="translate(23.213 63.836)"/>
      <rect id="Rectangle_273" data-name="Rectangle 273" width="5.803" height="5.803" transform="translate(46.426 69.639)"/>
      <path id="Tracé_154" data-name="Tracé 154" d="M491.607,491.607h17.41v-5.8h-17.41V480h-5.8v11.607H480v5.8h5.8v5.8h5.8V491.607Z" transform="translate(-421.967 -421.967)"/>
      <path id="Tracé_155" data-name="Tracé 155" d="M658.033,457.41v-5.8H646.426v-5.8h-5.8V440h-5.8v11.607h5.8v11.606h-5.8v-5.8h-5.8v5.8H600v5.8h5.8v5.8h5.8v-5.8h11.607v11.606h-5.8v5.8h-5.8v5.8h5.8v5.8h-5.8v5.8h5.8v5.8h5.8v17.41h5.8v-5.8h5.8V509.639h5.8v17.41H629.016v5.8h40.623v-5.8H658.033v-5.8h5.8v-5.8h5.8v-5.8h-5.8V498.033h5.8V474.82h-5.8v5.8h-17.41V457.41h5.8v5.8h11.607v5.8h5.8V457.41H658.033ZM634.82,503.836H623.213v-17.41h17.41v17.41Zm17.41,23.213h-5.8V515.442h5.8v11.607Zm11.607-40.623v5.8h-5.8v-5.8Zm-11.607,0v11.607h5.8v11.607h-5.8v-5.8h-5.8v-17.41ZM640.623,474.82h-5.8v-5.8h5.8Z" transform="translate(-524.558 -387.771)"/>
      <rect id="Rectangle_274" data-name="Rectangle 274" width="5.803" height="5.803" transform="translate(5.803 81.246)"/>
      <path id="Tracé_156" data-name="Tracé 156" d="M137.41,434.82V423.213h-5.8v-5.8h5.8v-5.8h5.8v-5.8h-5.8V400H125.8v23.213H120v5.8h5.8v5.8h5.8v11.607h11.607v-5.8h-5.8Z" transform="translate(-114.197 -353.574)"/>
      <path id="Tracé_157" data-name="Tracé 157" d="M285.8,571.607v-5.8h5.8V560H280v17.41h11.607v-5.8Z" transform="translate(-250.984 -490.361)"/>
      <path id="Tracé_158" data-name="Tracé 158" d="M565.8,640H560v11.607h11.607v-5.8h-5.8Z" transform="translate(-490.361 -558.754)"/>
      <path id="Tracé_159" data-name="Tracé 159" d="M960,640v5.8h11.606V640H960Z" transform="translate(-832.328 -558.754)"/>
      <rect id="Rectangle_275" data-name="Rectangle 275" width="5.803" height="5.803" transform="translate(0 87.049)"/>
      <path id="Tracé_160" data-name="Tracé 160" d="M349.016,645.8V640h-5.8v5.8h-5.8V640h-5.8v5.8h-5.8v5.8H320v5.8h11.607v-5.8h11.607v11.607h5.8v-5.8h5.8v-5.8h-5.8Z" transform="translate(-285.18 -558.754)"/>
      <rect id="Rectangle_276" data-name="Rectangle 276" width="5.803" height="5.803" transform="translate(11.607 92.852)"/>
      <path id="Tracé_161" data-name="Tracé 161" d="M520,765.8v5.8h5.8v5.8H520v5.8h5.8v5.8H520v5.8h17.41v-5.8h5.8v-5.8h-5.8v-5.8h-5.8V765.8h5.8V760H525.8v5.8Z" transform="translate(-456.164 -661.345)"/>
      <rect id="Rectangle_277" data-name="Rectangle 277" width="5.803" height="5.803" transform="translate(104.459 104.459)"/>
      <path id="Tracé_162" data-name="Tracé 162" d="M417.41,789.016v-5.8h-5.8V771.607h-5.8V760H400v17.41h5.8v5.8H400V794.82h11.607v-5.8Z" transform="translate(-353.574 -661.345)"/>
      <rect id="Rectangle_278" data-name="Rectangle 278" width="5.803" height="5.803" transform="translate(87.049 127.672)"/>
      <rect id="Rectangle_279" data-name="Rectangle 279" width="5.803" height="5.803" transform="translate(58.033 133.475)"/>
      <rect id="Rectangle_280" data-name="Rectangle 280" width="5.803" height="5.803" transform="translate(46.426 139.278)"/>
      <rect id="Rectangle_281" data-name="Rectangle 281" width="5.803" height="5.803" transform="translate(69.639 139.278)"/>
      <rect id="Rectangle_282" data-name="Rectangle 282" width="5.803" height="5.803" transform="translate(81.246 139.278)"/>
    </g>
    <g id="Groupe_677" data-name="Groupe 677" transform="translate(80 80)">
      <g id="Groupe_676" data-name="Groupe 676" transform="translate(0 0)">
        <g id="Groupe_675" data-name="Groupe 675">
          <rect id="Rectangle_283" data-name="Rectangle 283" width="28.436" height="28.436" transform="translate(6.093 6.093)" fill="none"/>
          <path id="Tracé_163" data-name="Tracé 163" d="M114.529,80H80v40.623h40.623V80Zm0,34.529H86.093V86.093h28.436Z" transform="translate(-80 -80)"/>
        </g>
      </g>
    </g>
    <g id="Groupe_680" data-name="Groupe 680" transform="translate(184.459 80)">
      <g id="Groupe_679" data-name="Groupe 679" transform="translate(0 0)">
        <g id="Groupe_678" data-name="Groupe 678">
          <rect id="Rectangle_284" data-name="Rectangle 284" width="28.436" height="28.436" transform="translate(6.093 6.093)" fill="none"/>
          <path id="Tracé_164" data-name="Tracé 164" d="M834.529,80H800v40.623h40.623V80Zm0,34.529H806.093V86.093h28.436Z" transform="translate(-800 -80)"/>
        </g>
      </g>
    </g>
    <g id="Groupe_683" data-name="Groupe 683" transform="translate(80 184.459)">
      <g id="Groupe_682" data-name="Groupe 682" transform="translate(0)">
        <g id="Groupe_681" data-name="Groupe 681">
          <rect id="Rectangle_285" data-name="Rectangle 285" width="28.436" height="28.436" transform="translate(6.093 6.093)" fill="none"/>
          <path id="Tracé_165" data-name="Tracé 165" d="M114.529,800H80v40.623h40.623V800Zm0,34.529H86.093V806.093h28.436Z" transform="translate(-80 -800)"/>
        </g>
      </g>
    </g>
    <g id="Groupe_685" data-name="Groupe 685" transform="translate(91.607 91.607)">
      <g id="Groupe_684" data-name="Groupe 684" transform="translate(0 0)">
        <rect id="Rectangle_286" data-name="Rectangle 286" width="17.41" height="17.41"/>
      </g>
    </g>
    <g id="Groupe_687" data-name="Groupe 687" transform="translate(196.065 91.607)">
      <g id="Groupe_686" data-name="Groupe 686" transform="translate(0 0)">
        <rect id="Rectangle_287" data-name="Rectangle 287" width="17.41" height="17.41"/>
      </g>
    </g>
    <g id="Groupe_689" data-name="Groupe 689" transform="translate(91.607 196.065)">
      <g id="Groupe_688" data-name="Groupe 688" transform="translate(0)">
        <rect id="Rectangle_288" data-name="Rectangle 288" width="17.41" height="17.41"/>
      </g>
    </g>
  </g>
</svg>
