<svg id="temp" xmlns="http://www.w3.org/2000/svg" width="15.191" height="30.382" viewBox="0 0 15.191 30.382">
  <path id="Tracé_19" data-name="Tracé 19" d="M128.64,1362.665v-14.587a4.4,4.4,0,0,0-8.808,0v3.6h-4.225v1.438h4.226v1.438h-4.226v1.438h4.226v1.438h-4.226v1.438h4.226v1.438h-4.226v1.438h4.226v.924a6.562,6.562,0,1,0,8.808,0Zm-4.4,9.144a4.32,4.32,0,0,1-4.315-4.315,4.591,4.591,0,0,1,2.157-3.77v-15.647a2.157,2.157,0,0,1,4.315,0v15.647c1.682,1.309,2.158,2.48,2.158,3.77A4.32,4.32,0,0,1,124.236,1371.809Z" fill="black" stroke="#000" stroke-linecap="round" stroke-miterlimit="10" stroke-width="0.0" transform="translate(-115.607 -1343.674)"/>
  <path id="Tracé_20" data-name="Tracé 20" d="M140.721,1387.23a2.877,2.877,0,1,1-3.6-2.786v-13.035h1.438v13.035A2.877,2.877,0,0,1,140.721,1387.23Z" fill="black" stroke="#000" stroke-linecap="round" stroke-miterlimit="10" stroke-width="0.0" transform="translate(-129.384 -1363.41)"/>
</svg>
